<?xml version="1.0" encoding="UTF-8"?>
<svg version="1.1" xmlns="http://www.w3.org/2000/svg" width="512" height="484">
<path d="M0 0 C15.70314668 14.57607979 26.29779486 35.05591766 27.97201538 56.53900146 C28.14295247 61.1574197 28.0733515 65.77358001 28.00335693 70.39364624 C27.83366654 85.34128291 29.05248757 95.7173435 37.7890625 108.19140625 C45.52353901 125.11365263 41.85955655 147.73480848 35.76318359 164.70068359 C27.31835922 186.29318941 15.04347671 205.79205737 2.38330078 225.09033203 C-2.11764313 231.97517509 -6.31393235 238.94586335 -10.2109375 246.19140625 C-10.64019531 246.92488281 -11.06945312 247.65835937 -11.51171875 248.4140625 C-14.19413552 253.47651451 -14.5702565 258.2656284 -15.0234375 263.87890625 C-15.94582468 274.77298584 -19.63156543 285.15341886 -28.08984375 292.61328125 C-49.21460142 308.33041219 -74.65924621 312.76297826 -100.40014648 309.36669922 C-118.21149899 306.71383064 -135.75095908 300.88749364 -148.2109375 287.19140625 C-153.67820976 279.78181358 -157.07139382 272.08791874 -157.5859375 262.87890625 C-158.86357359 246.58344243 -170.99347391 230.91461067 -179.3984375 217.37890625 C-198.11336046 187.19725795 -217.76945013 153.26912214 -210.4921875 116.56640625 C-208.50124343 108.87724296 -205.42146453 102.11860244 -201.69921875 95.15234375 C-199.51596769 90.80876291 -199.09350362 87.52206471 -199.18359375 82.67578125 C-199.1976123 81.59748047 -199.21163086 80.51917969 -199.22607422 79.40820312 C-199.2417041 78.26416016 -199.25733398 77.12011719 -199.2734375 75.94140625 C-199.38864689 50.48362268 -194.87429842 28.14310225 -178.2109375 8.19140625 C-177.70175781 7.5365625 -177.19257813 6.88171875 -176.66796875 6.20703125 C-159.0194755 -15.58123202 -128.51906038 -26.4879636 -101.3984375 -29.52734375 C-64.83940269 -32.35071476 -27.98581867 -24.90002742 0 0 Z " fill="#000000" transform="translate(346.2109375,29.80859375)"/>
<path d="M0 0 C3.38190969 1.27463395 6.41012173 2.73373969 9.4921875 4.6171875 C10.35062256 5.13587402 11.20905762 5.65456055 12.09350586 6.18896484 C13.01139893 6.74535645 13.92929199 7.30174805 14.875 7.875 C26.34378425 14.73610777 38.06547777 20.99185923 50 27 C50.6698291 27.34224609 51.3396582 27.68449219 52.02978516 28.03710938 C66.75061932 35.51916976 82.59857774 40.68704293 98.140625 46.171875 C133.60676807 58.72711171 133.60676807 58.72711171 141.9765625 73.5078125 C152.28486396 98.60970689 148 130.09733882 148 155 C80.02 155 12.04 155 -58 155 C-57.33023834 151.65119169 -56.73677614 149.00734763 -55.56738281 145.89892578 C-55.27402039 145.11361984 -54.98065796 144.3283139 -54.67840576 143.51921082 C-54.35656311 142.66982437 -54.03472046 141.82043793 -53.703125 140.9453125 C-53.19208221 139.58331474 -53.19208221 139.58331474 -52.67071533 138.19380188 C-51.53446207 135.16935184 -50.39238358 132.14713937 -49.25 129.125 C-48.4418849 126.97931296 -47.63394577 124.83355965 -46.82617188 122.68774414 C-37.73837595 98.57271399 -28.532709 74.50237918 -19.315979 50.43640137 C-17.98293984 46.955451 -16.65033867 43.47433326 -15.31787109 39.99316406 C-10.21473439 26.6610282 -5.10898906 13.32989428 0 0 Z " fill="#000000" transform="translate(364,329)"/>
<path d="M0 0 C0.93403625 1.59692383 0.93403625 1.59692383 1.7355957 3.70703125 C2.20063255 4.90584427 2.20063255 4.90584427 2.67506409 6.12887573 C3.00530075 7.01447174 3.33553741 7.90006775 3.67578125 8.8125 C4.21204384 10.20869064 4.21204384 10.20869064 4.75914001 11.63308716 C5.95413659 14.75147317 7.13309861 17.87568588 8.3125 21 C9.15281382 23.20080039 9.99430778 25.40115051 10.83691406 27.60107422 C12.63216744 32.29171064 14.42167551 36.98448444 16.20751953 41.67871094 C20.38005472 52.63433744 24.61826196 63.56460159 28.84793091 74.4982605 C31.16055048 80.48032573 33.46681761 86.46483813 35.7734375 92.44921875 C38.7090093 100.06472728 41.64826155 107.67877554 44.59655762 115.28936768 C46.02853127 118.98671221 47.45805365 122.68500128 48.88708496 126.38348389 C49.53995427 128.07132005 50.19398634 129.75870696 50.84924316 131.44561768 C51.73323485 133.72170911 52.61321239 135.99931134 53.4921875 138.27734375 C53.75037262 138.93893997 54.00855774 139.60053619 54.27456665 140.28218079 C56 144.77193816 56 144.77193816 56 147 C-12.31 147 -80.62 147 -151 147 C-151 138.76412327 -150.99254551 130.60878937 -150.6328125 122.39453125 C-150.59316376 121.46380295 -150.55351501 120.53307465 -150.51266479 119.57414246 C-150.42857314 117.63244432 -150.34280344 115.69081815 -150.25537109 113.74926758 C-150.12478818 110.80772853 -150.0056233 107.8658595 -149.88671875 104.92382812 C-148.65125386 76.08371603 -148.65125386 76.08371603 -139.203125 66.1015625 C-134.70038038 62.24456032 -129.61919374 59.71296567 -124.2890625 57.22265625 C-123.54670853 56.87488632 -122.80435455 56.52711639 -122.039505 56.16880798 C-114.64355339 52.75506408 -107.09337005 49.80572923 -99.47595215 46.9286499 C-85.76735075 41.74011941 -72.20874572 36.37193741 -59 30 C-58.08992188 29.5654248 -57.17984375 29.13084961 -56.2421875 28.68310547 C-38.49334402 20.16661874 -20.92346277 10.89954702 -4.65625 -0.23461914 C-3 -1 -3 -1 0 0 Z " fill="#000000" transform="translate(151,337)"/>
<path d="M0 0 C1.14145981 -0.01583633 2.28291962 -0.03167267 3.45896912 -0.04798889 C4.68301956 -0.04302902 5.90707001 -0.03806915 7.16821289 -0.03295898 C9.06731163 -0.04225685 9.06731163 -0.04225685 11.004776 -0.05174255 C13.68082945 -0.05884308 16.3553783 -0.05761153 19.03125 -0.04296875 C22.44907646 -0.02579068 25.86522014 -0.04926833 29.28285885 -0.08445835 C32.55716283 -0.11178584 35.83132709 -0.10169224 39.10571289 -0.09545898 C40.32773911 -0.10871719 41.54976532 -0.1219754 42.80882263 -0.13563538 C52.26732224 -0.03206802 52.26732224 -0.03206802 55.89697266 2.82275391 C61.07386858 8.9071273 60.57588995 14.06967883 60.57397461 21.89575195 C60.57833965 23.89494237 60.61535444 25.89397384 60.65258789 27.89282227 C60.65645508 29.16383789 60.66032227 30.43485352 60.66430664 31.74438477 C60.67252441 32.90244629 60.68074219 34.06050781 60.68920898 35.25366211 C59.98693435 39.99454524 57.68338652 43.02496801 54.37524414 46.39672852 C51.32318796 47.99411763 48.87207971 47.82350858 45.45336914 47.72094727 C43.79772949 47.67127808 43.79772949 47.67127808 42.10864258 47.62060547 C41.14990234 47.59184326 40.19116211 47.56308105 39.20336914 47.53344727 C39.38607864 48.29849579 39.56878815 49.06354431 39.7570343 49.85177612 C41.7578004 58.35700017 43.49332202 66.89541008 45.12133789 75.47875977 C45.38595324 76.86549505 45.65071134 78.25220309 45.91560364 79.6388855 C46.46426626 82.51423539 47.01111642 85.38992222 47.55664062 88.26586914 C48.25575844 91.95064216 48.95970623 95.63447393 49.66498852 99.31807137 C50.20998674 102.16751927 50.75238664 105.01745697 51.29400063 107.8675499 C51.55273588 109.22728003 51.81229955 110.5868528 52.07271385 111.94626236 C52.43427148 113.83565722 52.7919359 115.72579585 53.14941406 117.6159668 C53.45560921 119.2259404 53.45560921 119.2259404 53.76799011 120.86843872 C54.20336914 123.53344727 54.20336914 123.53344727 54.20336914 126.53344727 C33.74336914 126.53344727 13.28336914 126.53344727 -7.79663086 126.53344727 C-7.20288849 120.59602355 -6.64721417 115.15940774 -5.50561523 109.38720703 C-5.31761101 108.42664146 -5.31761101 108.42664146 -5.12580872 107.44667053 C-4.71851211 105.37181211 -4.30461457 103.29833707 -3.89038086 101.22485352 C-3.60239009 99.76666604 -3.31475808 98.30840766 -3.02746582 96.8500824 C-2.42849047 93.81467957 -1.82644895 90.7799078 -1.22192383 87.74560547 C-0.44731496 83.85721016 0.3213967 79.96767862 1.08808136 76.07771397 C1.68008333 73.07571542 2.27420114 70.07413899 2.86906433 67.07270622 C3.15336592 65.63786262 3.43723358 64.20293298 3.72065735 62.76791573 C4.1158796 60.76952055 4.51404732 58.77170857 4.91235352 56.77392578 C5.1380603 55.63826675 5.36376709 54.50260773 5.59631348 53.33253479 C6.20336914 50.53344727 6.20336914 50.53344727 7.20336914 47.53344727 C6.33454102 47.59145508 5.46571289 47.64946289 4.57055664 47.70922852 C-6.02041604 48.12386391 -6.02041604 48.12386391 -9.48413086 45.34594727 C-14.83744803 38.83515612 -14.13047328 32.16765017 -14.10913086 24.09594727 C-14.12524414 22.88100586 -14.14135742 21.66606445 -14.15795898 20.41430664 C-14.15860352 19.23803711 -14.15924805 18.06176758 -14.15991211 16.84985352 C-14.16289307 15.7819458 -14.16587402 14.71403809 -14.16894531 13.61376953 C-13.59212053 8.84144278 -12.02638737 5.70609853 -8.54705811 2.38833618 C-5.37764188 0.25088098 -3.78210131 0.0234164 0 0 Z " fill="#000000" transform="translate(232.796630859375,357.466552734375)"/>
</svg>
